<svg id="Layer_1" data-name="Layer 1" xmlns="http://www.w3.org/2000/svg" viewBox="0 0 674.76 129.17"><defs><style>.cls-1{fill:#3e2d23;}</style></defs><path class="cls-1" d="M776.32,456.79c-5.73,8.51-9.73,19.78-21.73,21.78-12.47,2.08-18.88-7.1-25.26-16.22-2.94,3.66-5.52,7.23-8.48,10.47-4.7,5.14-10.74,7.12-17.28,4.79-6.13-2.18-9.14-7.81-9.54-13.79-1.35-20.54,5.43-38.31,20.12-52.81,3.68-3.63,8.5-5.45,13.59-2.94,4.58,2.26,5.53,6.66,5.29,11.41-.15,3.12.17,5.61,3.37,7.74,3.76,2.49,2,6.73,1.4,10.41-1.49,10-.29,19.31,7.38,26.67,5.1,4.9,8.56,4.78,13.05-.64,7.93-9.58,12.09-21.1,15.94-32.71,1-3.11-.43-3.72-3.28-2.9-2.48.7-5.12,1.27-7.45-.45a4,4,0,0,1-1.65-4.36,5.51,5.51,0,0,1,4.94-4.41c9.77-.72,11.89-6.81,11.89-15.31,0-4.1,1.49-8.29,2.77-12.28s4.24-5.56,8.29-4.73,4.22,4,4.12,7.14a81.84,81.84,0,0,1-.65,8.42c-.37,2.72-2.51,6.15-.21,7.92s5.13-1.23,7.81-1.85c3.79-.89,8.68-4.79,10.85,1.17,2,5.47-3.69,6.7-7.31,8.53a20.52,20.52,0,0,1-6.59,2.39c-9.12,1.06-10.79,7.25-11,14.88A71.88,71.88,0,0,0,788,451.22c2.2,11.09,10.28,14.66,19.77,8.58,2.54-1.63,4.64-3.94,7-5.89s4.76-3.45,7.51-1,2.22,5.52.2,8.2c-6.32,8.4-14.5,13.4-25.3,12.6-9.46-.7-15.34-6.31-18.68-14.89C778.18,458,778.08,457,776.32,456.79Zm-55.08-38.5c-10.83,11.12-16,24.63-16.71,40.07-.14,3.18-.34,7.27,3.42,8.49s5.71-2.45,7.65-5a40.79,40.79,0,0,0,3.58-6.05C725.22,444.07,728.67,432.05,721.24,418.29Z" transform="translate(-258.26 -355.8)"/><path class="cls-1" d="M463.48,429.57c5.7-12.06,12.24-21,22.85-26.37,9-4.5,17.41-3.78,24.69,2.91,2.93,2.68,4.63,3.2,8.16.65,8.29-6,13.46-3.23,14.31,6.91.11,1.3-1.08,3.05,1.93,3.39,8.11.91,9.93,3.4,8.47,11.84-1.32,7.65-1.09,15,2.56,21.93a39.74,39.74,0,0,0,4.09,6.55c5.06,6.32,8.82,7,15.74,2.69,3.13-1.93,6.33-4.33,9.07-.12,2.5,3.83-.34,6.63-3,9-7.6,6.74-17.61,7-25.65.25-3.37-2.82-6.09-6.4-9.61-10.18-3.69,5.71-6.82,11.67-12.08,16-6.84,5.65-14.46,8.45-22.77,4.71-8.09-3.65-9.77-11.26-9.7-19.54.12-13.12,4.59-24.74,11.32-35.74,1.51-2.47,5.44-4.69,1.73-8.42-3.35-3.36-7.05-5.75-11.92-3.84a31.14,31.14,0,0,0-15.21,13.09c-6.53,10.47-7.83,22.46-10.05,34.19a99,99,0,0,1-2.31,10.27c-1.1,3.63-3.3,6.26-7.63,5.88-4.84-.42-6.35-4.15-6.48-7.91-.32-10.09-.53-20.23.14-30.28.5-7.5.85-15,1.17-22.5.15-3.7.84-7.5,5.73-7.13,4.53.35,4.38,4.32,4.49,7.53C463.64,419.53,462.2,423.67,463.48,429.57Zm66.88-5.68c-17.49-1-20.87,12.25-25.1,24.62A18.16,18.16,0,0,0,504,454c-.07,5.41-2.89,12.48,3.34,15.32,6.78,3.09,11.29-2.9,14.87-7.78C530.57,450.13,532,437.1,530.36,423.89Z" transform="translate(-258.26 -355.8)"/><path class="cls-1" d="M414.51,457.76c-3.65,6.82-6.65,13.21-11.83,18.2-13,12.53-25.65,10.33-33.29-6.26-2.62,3.11-4.92,6.28-7.65,9-9.35,9.35-19.69,6.88-23.61-5.78-3-9.64-2.15-19.45-.57-29.29,1.71-10.74,4.45-21.12,9.27-30.88,1.74-3.52,4.38-7,8.74-4.75s2.1,5.84.55,9.17c-7,15.16-10.54,31-8.84,47.82.29,2.8.47,6.52,3.24,7.29,3.4.95,5.18-2.75,6.56-5.24,3.64-6.55,7-13.28,10.18-20.08,6.37-13.62,15-25.43,26.78-34.9,3.69-3,7.5-5.68,12.14-6.94s9.5-.11,11,3.94c2.35,6.33,6.92,11.91,6.53,19.35-.48,8.89-.74,17.89,2.52,26.47,1.94,5.11,4,9.86,11.16,6.31a4.81,4.81,0,0,1,6.68,2.25c1.21,2.44,0,4.54-1.63,6.39-4.9,5.59-14.24,5.46-20.24-.13C418.85,466.6,417.45,462.26,414.51,457.76Zm-33.39,5.14c.26,4.06-.48,7.62,2.85,9.21s6.44-.38,8.94-2.54a30.19,30.19,0,0,0,5.61-6.23c7.16-11,10-23.6,12.64-36.21.83-4-3.33-6.87-7.77-5.71a13.31,13.31,0,0,0-6.85,4.71C387.54,437.16,383.06,450,381.12,462.9Z" transform="translate(-258.26 -355.8)"/><path class="cls-1" d="M917.37,407.15c-9.25-9.37-19.55-6.75-23.78,5.7-3.94,11.58-8.09,23-14.82,33.37-3.49,5.36-7.39,10.33-13,13.63-12.56,7.37-24.55,1.16-25.82-13.29-.32-3.69.51-5.93,4.48-7.43,9.23-3.48,16.92-9.2,21.69-18.14,3.94-7.37,3.67-14.06-.92-17.43-6-4.43-11.74-2.06-16.82,1.8-13.77,10.47-20.08,25-19.2,41.81C830.41,471,852,481.54,872.32,469c6.55-4,11.38-9.75,15.51-16.12,6.95-10.72,11.83-22.36,15.63-34.52,1.89-6,3.93-6.5,7.74-1.35a54.31,54.31,0,0,1,10.56,35.73c-.22,4.73-2.83,7.21-8.09,6-2.79-.66-6-.71-7,2.9-1.05,3.91,1.35,6.27,4.64,7.63a13.88,13.88,0,0,0,8.95.78c8.48-2.15,12.7-8.93,12.72-23.8C931.74,433.62,928.75,418.67,917.37,407.15Zm-72.78,13.71a10.77,10.77,0,0,1,.85-1.37,34,34,0,0,1,5.49-6.07c1.7-1.48,4.36-4.28,6.83-3,7.3,3.76-7.37,13.41-10.5,14.32a2.19,2.19,0,0,1-3.16-2.42A4.69,4.69,0,0,1,844.59,420.86Z" transform="translate(-258.26 -355.8)"/><path class="cls-1" d="M258.35,443.9c2.11-30.87,14.22-57.66,38-79.57a35.47,35.47,0,0,1,11-7c10.79-4.24,20.85.58,22.71,11.39,2.15,12.49-.49,24.42-6.4,35.73-1.56,3-4.15,5.38-7.82,3.7-3.92-1.79-2.62-5-1.17-8,3.61-7.45,6-15.18,5.91-23.47-.05-4,.2-8.58-4.17-10.44s-7.92,1.6-11,4.17c-16.25,13.6-25.71,31-31.93,50.2-3.86,11.9-5.8,24-2.53,36.28,4.58,17.26,21.06,22.64,36.17,11.89,3.16-2.25,5.9-5,9-7.4,2.19-1.72,4.85-2.11,7.08-.3s1.69,4.29.37,6.6c-5.5,9.62-22.26,18.39-33.76,17.14-14.17-1.54-23.65-8.94-28.44-21.43A46.06,46.06,0,0,1,258.35,443.9Z" transform="translate(-258.26 -355.8)"/><path class="cls-1" d="M651.57,410.79c3,.16,4.36.28,5.74.31,23.08.51,32.88,14.1,26.35,36.54-7.08,24.36-20,35.38-40.35,34.63-2.85-.11-5.58-.37-8-2.09-2.68-1.92-4.72-4.29-3.61-7.82,1.22-3.88,4.42-3.68,7.62-3.17,17.89,2.86,37-18.66,32.53-36.79-1.46-6-6.1-7.55-11.49-8-8.08-.62-16.21,1.39-24.26-.62-3.82-.95-3.12,2.19-3.36,4.18-1.22,10.08-2.34,20.17-3.51,30.26-.26,2.24-.41,4.51-.85,6.72-.76,3.82-2.16,7.31-6.9,7-5-.34-5.28-4.08-5.36-8-.25-11.66,2.23-23,3.65-34.49,2.29-18.47,5.45-36.83,8-55.27.77-5.61,2.93-8.39,8.91-9,4.58-.49,8.86-3.36,13.44-4.48,13.87-3.39,22.58,6.05,18.57,19.86-2.58,8.85-7.9,16.16-12.95,23.62C654.49,406,653.4,407.86,651.57,410.79Zm-15.28-3.61c8.72-9.15,15.11-17.91,19.55-28,1-2.23,3-5.73-1.87-6.45-5.4-.8-14.56,5.29-15.37,10.81C637.55,390.72,635.68,397.89,636.29,407.18Z" transform="translate(-258.26 -355.8)"/><path class="cls-1" d="M360.49,398.63c8.59,0,8.6-13.35,0-13.35s-8.61,13.35,0,13.35Z" transform="translate(-258.26 -355.8)"/></svg>